<?xml version="1.0" encoding="UTF-8"?>
<svg id="Layer_2" data-name="Layer 2" xmlns="http://www.w3.org/2000/svg" viewBox="0 0 396.99 141.24">
  <defs>
    <style>
      .cls-1 {
        letter-spacing: -.04em;
      }

      .cls-2 {
        letter-spacing: -.03em;
      }

      .cls-3 {
        font-family: Montserrat-ExtraBold, Montserrat;
        font-size: 54.24px;
        font-weight: 700;
      }

      .cls-3, .cls-4 {
        fill: #231f20;
      }

      .cls-4 {
        font-family: Montserrat-Medium, Montserrat;
        font-size: 20px;
        font-weight: 500;
      }

      .cls-5 {
        letter-spacing: 0em;
      }

      .cls-6 {
        letter-spacing: 0em;
      }
    </style>
  </defs>
  <g id="Layer_1-2" data-name="Layer 1">
    <g>
      <path d="m130.56,141.13V0c.55.68.9.93.95,1.22.1.59.05,1.21.05,1.82,0,45.27,0,90.54,0,135.81,0,.8-.14,1.6-.21,2.4-.26-.04-.52-.07-.78-.11Z"/>
      <g>
        <path d="m16.02,82.73c17.66.43,31.17,7.34,38.06,24.79,6.96-17.47,20.6-24.28,38.55-24.34-1.79,1.17-3.61,2.3-5.37,3.51-10.01,6.86-20.01,13.74-30.01,20.63-3.05,2.1-3.04,2.11-6.05.06-11.48-7.83-22.96-15.66-34.45-23.48-.33-.23-.65-.47-.97-.71.08-.15.17-.3.25-.45Z"/>
        <path d="m53.47,97.59c-3.19-5.64-6.63-10.98-11.37-15.2-4.65-4.14-9.8-7.71-14.57-11.4,1.75.32,3.81.76,5.89,1.05,7.35,1.04,11.87-1.35,15.05-8.01,1.38-2.9,2.59-5.88,3.86-8.83.07-.15.03-.35.05-.77-3.48,1.02-4.1-1.64-5.16-3.85-.41-.86-1.19-1.53-1.73-2.33-.24-.36-.43-.87-.36-1.26.06-.32.54-.77.85-.78.41-.02.96.22,1.22.54,1.01,1.26,1.93,2.6,2.88,3.91.24-.04.47-.07.71-.11.91-2.13,1.86-4.25,2.7-6.41.13-.34-.33-.87-.33-1.32,0-.37.17-.88.45-1.06.28-.19.86-.2,1.16-.03.29.16.63.85.52.98-1.31,1.69.11,3.1.49,4.56.29,1.14.98,2.17,1.79,3.86,1.29-1.66,2.26-3.02,3.37-4.26.34-.38,1.09-.4,1.65-.58.12.58.49,1.57.31,1.68-1.9,1.16-2.12,3.31-3.04,5.01-.6,1.11-1.25,1.62-2.53,1.52-1.44-.11-2.89-.03-4.41-.03-1.1,14.5-2.03,28.82.57,43.13Z"/>
        <path d="m54.52,97.58c2.69-13.97,1.97-27.61,1.42-41.29.9,2.15,1.73,4.34,2.7,6.46,3.84,8.32,8.5,10.71,17.5,9.04,1.6-.3,3.2-.63,4.94-.68-2.12,1.45-4.22,2.94-6.38,4.33-8.35,5.37-14.86,12.41-19.43,21.23-.1.2-.29.35-.76.9Z"/>
        <path d="m67.06,102.25c12.95-9.03,25.83-18.16,39.91-25.78-.86,12.34-21.85,25.87-39.91,25.78Z"/>
        <path d="m1.57,76.75c13.91,7.43,26.77,16.39,39.61,25.45-9.33-.21-17.94-2.84-25.8-7.73-6.69-4.16-11.19-10.19-13.8-17.72Z"/>
        <path d="m56.54,21.5c0,3.58,0,7.16,0,10.74,0,2.06-.69,2.89-2.37,2.9-1.61,0-2.36-.74-2.36-2.75,0-7.4.06-14.8.11-22.2,0-1.49.72-2.48,2.27-2.47,1.54.02,2.25.96,2.25,2.49,0,3.76,0,7.52,0,11.28.04,0,.07,0,.11,0Z"/>
        <path d="m33.64,42.56c-.8-.58-1.56-.91-2-1.48-4.55-5.91-9.05-11.85-13.54-17.81-.9-1.2-.76-2.43.46-3.36,1.22-.93,2.34-.48,3.17.6,4.6,6.02,9.18,12.06,13.68,18.16.4.54.47,1.66.19,2.29-.29.64-1.19,1.02-1.95,1.61Z"/>
        <path d="m91.39,21.58c-.49.86-.75,1.48-1.14,1.98-4.31,5.57-8.63,11.12-12.96,16.68-.26.34-.53.66-.81.98-1,1.14-2.2,1.35-3.37.4-1.18-.96-.92-2.12-.07-3.21,3.22-4.18,6.44-8.37,9.67-12.55,1.41-1.82,2.73-3.74,4.31-5.4.56-.59,1.83-.88,2.67-.72.65.13,1.12,1.17,1.7,1.83Z"/>
        <path d="m22.42,58.55c-1.03-.28-1.63-.41-2.2-.6-6.01-2.09-12.03-4.18-18.03-6.29-1.92-.68-2.53-1.65-2.01-3.01.53-1.36,1.69-1.78,3.5-1.16,6.25,2.16,12.48,4.35,18.73,6.52,1.23.43,2.16,1.23,1.74,2.54-.26.82-1.2,1.42-1.73,2.01Z"/>
        <path d="m108.27,50.05c-.3.31-.73,1.18-1.4,1.42-6.51,2.33-13.04,4.58-19.59,6.8-1.24.42-2.36.01-2.74-1.36-.36-1.29.13-2.2,1.49-2.67,6.35-2.22,12.69-4.5,19.04-6.71,1.77-.61,3.23.38,3.2,2.52Z"/>
        <path d="m39.2,69.43c-2.66-.08-4.91-2.33-4.9-4.9.01-2.54,2.51-4.82,5.24-4.77,2.77.05,5.13,2.34,5.09,4.93-.05,2.67-2.51,4.82-5.42,4.74Z"/>
        <path d="m68.67,69.42c-2.78.03-5.12-2.12-5.19-4.76-.07-2.66,2.22-4.9,5.01-4.91,2.81,0,5.05,2.15,5.04,4.86,0,2.68-2.14,4.78-4.87,4.81Z"/>
        <path d="m49.57,34.33c-.57.44-1.27,1.38-2.07,1.48-.81.1-2.32-.44-2.5-1.02-1.12-3.64-2-7.36-2.86-11.08-.35-1.51.88-2.19,2.01-2.27.83-.06,2.3.5,2.47,1.08,1.09,3.71,1.91,7.51,2.94,11.81Z"/>
        <path d="m79.57,47.02c-.57-.45-1.52-.84-1.71-1.46-.23-.72-.08-1.99.42-2.43,2.86-2.51,5.84-4.9,8.86-7.21,1.11-.85,2.34-.58,3.19.57.75,1.02.66,2.12-.32,2.92-2.91,2.36-5.87,4.67-8.83,6.97-.36.28-.87.36-1.6.64Z"/>
        <path d="m95.81,45.42c-.29.33-.71,1.14-1.37,1.5-3.25,1.77-6.55,3.43-9.85,5.09-1.33.67-2.39.18-3.06-1.04-.73-1.33.02-2.2,1.14-2.8,3.2-1.72,6.41-3.44,9.64-5.09,1.83-.93,3.55.04,3.49,2.34Z"/>
        <path d="m30.55,44.15c.06,2.02-1.92,3.31-3.33,2.25-3.1-2.33-6.08-4.83-8.96-7.44-.44-.4-.36-1.91.04-2.55.75-1.18,2.07-1.25,3.19-.38,2.34,1.83,4.62,3.75,6.92,5.64.47.38.98.74,1.36,1.2.37.44.61,1,.76,1.28Z"/>
        <path d="m66.37,23.06c-1.09,4.28-1.99,8.05-3.02,11.77-.35,1.26-1.52,1.31-2.57,1-1.12-.33-2.01-1.05-1.71-2.38.81-3.6,1.67-7.18,2.59-10.76.29-1.15,1.24-1.82,2.36-1.38.93.36,1.68,1.21,2.36,1.74Z"/>
        <path d="m36.68,24.69c.31.3,1.11.78,1.46,1.49,1.43,2.88,2.7,5.83,4.06,8.75.63,1.35.34,2.38-1,3.02-1.37.65-2.5.37-3.19-1.05-1.4-2.89-2.81-5.78-4.16-8.7-.96-2.08-.05-3.44,2.83-3.5Z"/>
        <path d="m24.74,52.39c-1.26-.59-2.21-.99-3.11-1.47-2.41-1.28-4.81-2.57-7.19-3.89-1.73-.96-2.22-2.11-1.53-3.34.69-1.24,2-1.46,3.64-.56,3.03,1.65,6.1,3.24,9.04,5.04.61.38,1.13,1.65.97,2.35-.16.72-1.19,1.26-1.82,1.86Z"/>
        <path d="m68.94,38.26c-2.5-.05-3.58-1.54-2.83-3.32,1.26-3.01,2.59-5.99,3.97-8.95.65-1.4,1.86-1.64,3.37-.91,1.35.66,1.39,1.64.84,2.87-1.31,2.92-2.54,5.88-3.92,8.77-.34.71-1.11,1.21-1.42,1.53Z"/>
        <path d="m96.96,72.24c-2.96-.24-5.93-.48-8.89-.72-1.44-.12-2.33-.9-2.19-2.35.13-1.49,1.19-1.96,2.61-1.85,2.9.22,5.81.39,8.72.59,1.42.09,2.52.59,2.55,2.22.03,1.38-1.06,2.17-2.8,2.12Z"/>
        <path d="m18.77,64.63c-2.6-.16-5.21-.28-7.81-.5-1.82-.15-2.65-1.01-2.47-2.43.21-1.69,1.39-1.95,2.79-1.84,3.08.26,6.16.52,9.24.79,1.33.12,1.96.97,1.93,2.2-.03,1.21-.82,1.82-2.04,1.84-.55,0-1.09,0-1.64,0,0-.02,0-.04,0-.06Z"/>
        <path d="m11.1,72.2c-1.44.01-2.64-.51-2.71-2.06-.07-1.57,1.07-2.14,2.53-2.23,2.91-.17,5.82-.35,8.72-.59,1.42-.11,2.46.33,2.66,1.81.2,1.5-.69,2.25-2.12,2.37-3.03.25-6.05.47-9.08.7Z"/>
        <path d="m89.56,64.69c-.38,0-1.23.24-1.8-.06-.74-.38-1.73-1.16-1.77-1.82-.04-.68.86-1.96,1.47-2.04,3.35-.45,6.74-.65,10.12-.85,1.28-.08,2.08.75,2.18,1.97.1,1.36-.71,2.16-2.06,2.27-2.59.2-5.19.34-8.13.53Z"/>
      </g>
      <g>
        <text class="cls-4" transform="translate(166.71 41.22)"><tspan x="0" y="0">THE</tspan></text>
        <text class="cls-3" transform="translate(166.71 94.34)"><tspan x="0" y="0">R</tspan><tspan class="cls-2" x="40.13" y="0">O</tspan><tspan class="cls-1" x="84.39" y="0">Y</tspan><tspan class="cls-6" x="119.59" y="0">A</tspan><tspan class="cls-5" x="162.22" y="0">L</tspan><tspan x="195.19" y="0">S</tspan></text>
      </g>
    </g>
  </g>
</svg>