<svg width="163" height="58" viewBox="0 0 163 58" fill="none" xmlns="http://www.w3.org/2000/svg">
<g clip-path="url(#clip0_61_476)">
<path d="M53.6066 57.9465V0C53.8324 0.279201 53.9761 0.381848 53.9967 0.500919C54.0377 0.743167 54.0172 0.997733 54.0172 1.24819C54.0172 19.8356 54.0172 38.423 54.0172 57.0104C54.0172 57.3389 53.9597 57.6673 53.931 57.9958C53.8242 57.9794 53.7175 57.9671 53.6107 57.9506L53.6066 57.9465Z" fill="#556CCD"/>
<path d="M6.57765 33.9681C13.8287 34.1446 19.3757 36.9818 22.2047 44.1466C25.0624 36.9736 30.6628 34.1775 38.0329 34.1528C37.298 34.6332 36.5507 35.0972 35.8281 35.594C31.7181 38.4107 27.6122 41.2355 23.5063 44.0645C22.254 44.9267 22.2581 44.9308 21.0222 44.0891C16.3086 40.8742 11.5951 37.6593 6.87738 34.4485C6.74189 34.354 6.6105 34.2555 6.47911 34.1569C6.51196 34.0954 6.54891 34.0338 6.58176 33.9722L6.57765 33.9681Z" fill="#556CCD"/>
<path d="M21.9542 40.0694C20.6445 37.7537 19.232 35.5612 17.2858 33.8285C15.3766 32.1286 13.262 30.6628 11.3035 29.1478C12.0221 29.2791 12.8679 29.4598 13.7219 29.5789C16.7397 30.0059 18.5956 29.0246 19.9013 26.29C20.4679 25.0993 20.9647 23.8758 21.4862 22.6645C21.5149 22.603 21.4985 22.5208 21.5067 22.3484C20.0778 22.7672 19.8233 21.675 19.388 20.7676C19.2197 20.4145 18.8994 20.1394 18.6777 19.8109C18.5792 19.6631 18.5012 19.4537 18.5299 19.2936C18.5545 19.1622 18.7516 18.9774 18.8789 18.9733C19.0473 18.9651 19.2731 19.0637 19.3798 19.1951C19.7945 19.7124 20.1723 20.2626 20.5623 20.8005C20.6609 20.784 20.7553 20.7717 20.8539 20.7553C21.2275 19.8807 21.6175 19.0103 21.9624 18.1234C22.0158 17.9838 21.8269 17.7662 21.8269 17.5814C21.8269 17.4295 21.8967 17.2201 22.0117 17.1462C22.1267 17.0682 22.3648 17.0641 22.488 17.1339C22.6071 17.1996 22.7467 17.4829 22.7015 17.5363C22.1636 18.2302 22.7467 18.8091 22.9027 19.4086C23.0218 19.8766 23.3051 20.2995 23.6376 20.9934C24.1673 20.3119 24.5656 19.7535 25.0213 19.2443C25.1609 19.0883 25.4689 19.0801 25.6988 19.0062C25.7481 19.2443 25.9 19.6508 25.8261 19.696C25.046 20.1723 24.9556 21.055 24.5779 21.753C24.3315 22.2088 24.0647 22.4182 23.5391 22.3771C22.9479 22.332 22.3525 22.3648 21.7284 22.3648C21.2768 28.3184 20.8949 34.198 21.9624 40.0735L21.9542 40.0694Z" fill="#556CCD"/>
<path d="M22.3853 40.0653C23.4898 34.3294 23.1942 28.7289 22.9684 23.1121C23.3379 23.9948 23.6787 24.894 24.077 25.7645C25.6536 29.1806 27.567 30.1619 31.2623 29.4762C31.9192 29.353 32.5762 29.2175 33.2906 29.197C32.4202 29.7924 31.5579 30.4041 30.671 30.9749C27.2426 33.1797 24.5697 36.0703 22.6933 39.6917C22.6522 39.7738 22.5742 39.8354 22.3812 40.0612L22.3853 40.0653Z" fill="#556CCD"/>
<path d="M27.5341 41.9828C32.8513 38.2752 38.1397 34.5265 43.9208 31.3978C43.5677 36.4645 34.9494 42.0197 27.5341 41.9828Z" fill="#556CCD"/>
<path d="M0.64463 31.5128C6.35593 34.5634 11.6361 38.2423 16.9081 41.9623C13.0773 41.876 9.54211 40.7962 6.31487 38.7884C3.56803 37.0804 1.72038 34.6045 0.648736 31.5128H0.64463Z" fill="#556CCD"/>
<path d="M23.2147 8.82766C23.2147 10.2976 23.2147 11.7675 23.2147 13.2374C23.2147 14.0832 22.9314 14.424 22.2416 14.4281C21.5806 14.4281 21.2727 14.1243 21.2727 13.299C21.2727 10.2606 21.2973 7.22226 21.3178 4.1839C21.3178 3.57212 21.6134 3.16563 22.2499 3.16974C22.8822 3.17795 23.1737 3.56391 23.1737 4.19211C23.1737 5.73592 23.1737 7.27974 23.1737 8.82356C23.1901 8.82356 23.2024 8.82356 23.2188 8.82356L23.2147 8.82766Z" fill="#556CCD"/>
<path d="M13.8122 17.4747C13.4838 17.2365 13.1717 17.101 12.9911 16.867C11.1229 14.4404 9.27523 12.0015 7.43168 9.55441C7.06215 9.0617 7.11963 8.55667 7.62055 8.17483C8.12147 7.79298 8.58133 7.97774 8.92212 8.42118C10.8108 10.8929 12.6913 13.3729 14.539 15.8775C14.7032 16.0992 14.732 16.5591 14.617 16.8177C14.4979 17.0805 14.1284 17.2365 13.8163 17.4788L13.8122 17.4747Z" fill="#556CCD"/>
<path d="M37.5238 8.86051C37.3226 9.21362 37.2159 9.46818 37.0557 9.67348C35.2861 11.9605 33.5123 14.2392 31.7345 16.5221C31.6277 16.6617 31.5169 16.7931 31.4019 16.9245C30.9913 17.3926 30.4986 17.4788 30.0182 17.0887C29.5337 16.6946 29.6405 16.2183 29.9895 15.7707C31.3116 14.0545 32.6337 12.3341 33.9599 10.6178C34.5388 9.87056 35.0808 9.08223 35.7295 8.40065C35.9594 8.1584 36.4809 8.03933 36.8258 8.10502C37.0927 8.1584 37.2857 8.58541 37.5238 8.8564V8.86051Z" fill="#556CCD"/>
<path d="M9.20543 24.04C8.78252 23.9251 8.53616 23.8717 8.30213 23.7937C5.83448 22.9355 3.36273 22.0774 0.899196 21.2111C0.110863 20.9319 -0.139596 20.5336 0.0739104 19.9752C0.291523 19.4168 0.767807 19.2443 1.51097 19.4989C4.07716 20.3858 6.63513 21.285 9.20132 22.1759C9.70635 22.3525 10.0882 22.681 9.91575 23.2188C9.80899 23.5555 9.42304 23.8019 9.20543 24.0441V24.04Z" fill="#556CCD"/>
<path d="M44.4545 20.55C44.3314 20.6773 44.1548 21.0345 43.8797 21.133C41.2068 22.0897 38.5256 23.0135 35.8363 23.925C35.3271 24.0975 34.8673 23.9291 34.7113 23.3666C34.5634 22.837 34.7646 22.4633 35.323 22.2704C37.9303 21.3589 40.5334 20.4227 43.1407 19.5153C43.8674 19.2648 44.4669 19.6713 44.4545 20.55Z" fill="#556CCD"/>
<path d="M16.0951 28.5072C15.0029 28.4744 14.0791 27.5506 14.0832 26.4953C14.0873 25.4524 15.1138 24.5163 16.2347 24.5368C17.3721 24.5574 18.341 25.4976 18.3246 26.561C18.3041 27.6573 17.294 28.5401 16.0992 28.5072H16.0951Z" fill="#556CCD"/>
<path d="M28.1952 28.5031C27.0538 28.5154 26.093 27.6327 26.0642 26.5487C26.0355 25.4566 26.9757 24.5368 28.1213 24.5327C29.275 24.5327 30.1948 25.4155 30.1907 26.5282C30.1907 27.6286 29.312 28.4908 28.1911 28.5031H28.1952Z" fill="#556CCD"/>
<path d="M20.3529 14.0955C20.1189 14.2762 19.8315 14.6621 19.503 14.7032C19.1704 14.7443 18.5504 14.5225 18.4765 14.2844C18.0167 12.7899 17.6554 11.2625 17.3023 9.73506C17.1585 9.11507 17.6636 8.83587 18.1275 8.80303C18.4683 8.77839 19.0719 9.00832 19.1417 9.24646C19.5892 10.7698 19.9259 12.33 20.3488 14.0955H20.3529Z" fill="#556CCD"/>
<path d="M32.6706 19.3059C32.4366 19.1211 32.0465 18.961 31.9685 18.7065C31.8741 18.4108 31.9357 17.8894 32.141 17.7087C33.3153 16.6781 34.5388 15.6968 35.7788 14.7484C36.2346 14.3994 36.7396 14.5102 37.0886 14.9824C37.3965 15.4012 37.3596 15.8529 36.9572 16.1813C35.7624 17.1503 34.547 18.0988 33.3317 19.0431C33.1839 19.1581 32.9745 19.1909 32.6747 19.3059H32.6706Z" fill="#556CCD"/>
<path d="M39.3386 18.649C39.2195 18.7845 39.0471 19.1171 38.7761 19.2649C37.4417 19.9916 36.0867 20.6732 34.7318 21.3548C34.1857 21.6299 33.7505 21.4287 33.4754 20.9278C33.1757 20.3817 33.4836 20.0245 33.9435 19.7781C35.2573 19.0719 36.5753 18.3657 37.9015 17.6882C38.6529 17.3064 39.3591 17.7046 39.3345 18.649H39.3386Z" fill="#556CCD"/>
<path d="M12.5435 18.1275C12.5682 18.9569 11.7552 19.4866 11.1763 19.0514C9.90343 18.0947 8.67987 17.0682 7.49738 15.9966C7.31672 15.8323 7.34956 15.2123 7.5138 14.9496C7.82174 14.4651 8.36372 14.4363 8.82358 14.7935C9.78436 15.5449 10.7205 16.3332 11.6649 17.1093C11.8578 17.2653 12.0672 17.4131 12.2233 17.602C12.3752 17.7826 12.4737 18.0126 12.5353 18.1275H12.5435Z" fill="#556CCD"/>
<path d="M27.2508 9.46819C26.8033 11.2255 26.4338 12.7734 26.0109 14.3008C25.8671 14.8182 25.3868 14.8387 24.9556 14.7114C24.4958 14.5759 24.1304 14.2803 24.2535 13.7342C24.5861 12.2561 24.9392 10.7862 25.317 9.31627C25.436 8.84409 25.8261 8.569 26.2859 8.74966C26.6678 8.89747 26.9757 9.24647 27.2549 9.46408L27.2508 9.46819Z" fill="#556CCD"/>
<path d="M15.0604 10.1374C15.1877 10.2606 15.5162 10.4577 15.6599 10.7492C16.247 11.9317 16.7685 13.143 17.3269 14.3419C17.5856 14.8962 17.4665 15.3191 16.9163 15.5819C16.3538 15.8487 15.8898 15.7338 15.6065 15.1507C15.0317 13.9641 14.4528 12.7775 13.8985 11.5786C13.5043 10.7246 13.8779 10.1662 15.0604 10.1415V10.1374Z" fill="#556CCD"/>
<path d="M10.158 21.5108C9.64065 21.2685 9.25059 21.1043 8.88106 20.9072C7.89154 20.3817 6.90612 19.852 5.92892 19.31C5.2186 18.9159 5.01741 18.4437 5.30072 17.9387C5.58402 17.4295 6.1219 17.3392 6.79526 17.7087C8.03935 18.3862 9.29986 19.039 10.507 19.7781C10.7575 19.9341 10.971 20.4556 10.9053 20.743C10.8396 21.0386 10.4167 21.2603 10.158 21.5067V21.5108Z" fill="#556CCD"/>
<path d="M28.3061 15.7091C27.2796 15.6886 26.8362 15.0768 27.1441 14.346C27.6614 13.1101 28.2075 11.8866 28.7741 10.6712C29.041 10.0964 29.5378 9.99784 30.1578 10.2976C30.7121 10.5686 30.7285 10.9709 30.5027 11.476C29.9648 12.6749 29.4598 13.8902 28.8932 15.0768C28.7536 15.3684 28.4375 15.5737 28.3102 15.705L28.3061 15.7091Z" fill="#556CCD"/>
<path d="M39.8108 29.661C38.5954 29.5624 37.376 29.4639 36.1606 29.3654C35.5694 29.3161 35.204 28.9958 35.2614 28.4005C35.3148 27.7887 35.75 27.5957 36.3331 27.6409C37.5238 27.7312 38.7186 27.801 39.9134 27.8831C40.4965 27.9201 40.9481 28.1254 40.9604 28.7946C40.9728 29.3612 40.5252 29.6856 39.8108 29.6651V29.661Z" fill="#556CCD"/>
<path d="M7.70678 26.5364C6.63924 26.4707 5.5676 26.4214 4.50007 26.3311C3.7528 26.2695 3.41201 25.9164 3.48591 25.3334C3.57214 24.6395 4.05663 24.5327 4.63146 24.5779C5.89607 24.6846 7.16069 24.7914 8.42531 24.9022C8.97139 24.9515 9.23006 25.3005 9.21775 25.8055C9.20543 26.3024 8.88106 26.5528 8.38014 26.561C8.15432 26.561 7.9326 26.561 7.70678 26.561C7.70678 26.5528 7.70678 26.5446 7.70678 26.5364Z" fill="#556CCD"/>
<path d="M4.55755 29.6446C3.9663 29.6487 3.47359 29.4352 3.44485 28.7988C3.41611 28.1541 3.88418 27.9201 4.48364 27.8831C5.67846 27.8133 6.87328 27.7394 8.06399 27.6409C8.64702 27.5957 9.07404 27.7764 9.15615 28.3841C9.23827 28.9999 8.87285 29.3079 8.2857 29.3572C7.04162 29.4598 5.80164 29.5501 4.55755 29.6446Z" fill="#556CCD"/>
<path d="M36.7724 26.561C36.6164 26.561 36.2674 26.6596 36.0334 26.5364C35.7295 26.3804 35.323 26.0601 35.3066 25.7891C35.2902 25.5099 35.6597 24.9844 35.9102 24.9515C37.2857 24.7668 38.6776 24.6846 40.0654 24.6025C40.5909 24.5697 40.9194 24.9105 40.9604 25.4114C41.0015 25.9698 40.6689 26.2983 40.1146 26.3434C39.0512 26.4255 37.9837 26.483 36.7765 26.561H36.7724Z" fill="#556CCD"/>
<path d="M70.4531 16.7127V11.6789H68.4822V10.9645H73.2369V11.6789H71.266V16.7127H70.4531ZM78.2536 16.7127V10.9645H79.0748V16.7127H78.2536ZM74.1313 16.7127V10.9645H74.9524V16.7127H74.1313ZM74.8703 14.1506V13.4362H78.3275V14.1506H74.8703ZM80.7953 16.7127V10.9645H84.8519V11.6789H81.6165V15.9983H84.9669V16.7127H80.7953ZM81.5426 14.1424V13.4444H84.4988V14.1424H81.5426Z" fill="#556CCD"/>
<path d="M70.0083 37.4646V21.8754H76.979C79.2506 21.8754 80.9951 22.395 82.2125 23.4343C83.4448 24.4587 84.061 25.8618 84.061 27.6434C84.061 28.8163 83.7789 29.8333 83.2147 30.6944C82.6505 31.5407 81.8488 32.194 80.8095 32.6542C79.785 33.0997 78.5602 33.3224 77.1349 33.3224H72.4581L74.4179 31.4739V37.4646H70.0083ZM79.6514 37.4646L75.7764 31.7857H80.4754L84.3727 37.4646H79.6514ZM74.4179 31.9416L72.4581 29.915H76.8676C77.7881 29.915 78.4711 29.7146 78.9165 29.3137C79.3768 28.9128 79.6069 28.3561 79.6069 27.6434C79.6069 26.9159 79.3768 26.3517 78.9165 25.9509C78.4711 25.55 77.7881 25.3496 76.8676 25.3496H72.4581L74.4179 23.323V31.9416ZM94.3551 37.7764C93.108 37.7764 91.9573 37.576 90.9032 37.1751C89.8491 36.7743 88.9285 36.2101 88.1417 35.4826C87.3696 34.7402 86.7683 33.8791 86.3378 32.8992C85.9072 31.9193 85.6919 30.8429 85.6919 29.67C85.6919 28.4971 85.9072 27.4207 86.3378 26.4408C86.7683 25.4609 87.3696 24.6072 88.1417 23.8797C88.9285 23.1374 89.8491 22.5658 90.9032 22.1649C91.9573 21.764 93.108 21.5636 94.3551 21.5636C95.6171 21.5636 96.7677 21.764 97.807 22.1649C98.8611 22.5658 99.7742 23.1374 100.546 23.8797C101.318 24.6072 101.92 25.4609 102.35 26.4408C102.796 27.4207 103.018 28.4971 103.018 29.67C103.018 30.8429 102.796 31.9267 102.35 32.9215C101.92 33.9014 101.318 34.7551 100.546 35.4826C99.7742 36.2101 98.8611 36.7743 97.807 37.1751C96.7677 37.576 95.6171 37.7764 94.3551 37.7764ZM94.3551 34.1241C94.949 34.1241 95.4983 34.0202 96.0031 33.8123C96.5227 33.6044 96.9682 33.3075 97.3393 32.9215C97.7253 32.5206 98.0223 32.0455 98.2301 31.4962C98.4528 30.9468 98.5642 30.3381 98.5642 29.67C98.5642 28.9871 98.4528 28.3783 98.2301 27.8438C98.0223 27.2945 97.7253 26.8268 97.3393 26.4408C96.9682 26.0399 96.5227 25.7356 96.0031 25.5277C95.4983 25.3199 94.949 25.2159 94.3551 25.2159C93.7612 25.2159 93.2045 25.3199 92.6848 25.5277C92.18 25.7356 91.7346 26.0399 91.3486 26.4408C90.9774 26.8268 90.6805 27.2945 90.4578 27.8438C90.2499 28.3783 90.146 28.9871 90.146 29.67C90.146 30.3381 90.2499 30.9468 90.4578 31.4962C90.6805 32.0455 90.9774 32.5206 91.3486 32.9215C91.7346 33.3075 92.18 33.6044 92.6848 33.8123C93.2045 34.0202 93.7612 34.1241 94.3551 34.1241ZM108.595 37.4646V30.8726L109.62 33.5228L102.649 21.8754H107.304L112.337 30.3159H109.642L114.698 21.8754H118.973L112.025 33.5228L113.005 30.8726V37.4646H108.595ZM117.028 37.4646L123.91 21.8754H128.252L135.156 37.4646H130.568L125.179 24.0356H126.916L121.527 37.4646H117.028ZM120.792 34.4359L121.928 31.1844H129.544L130.68 34.4359H120.792ZM136.406 37.4646V21.8754H140.816V33.9682H148.254V37.4646H136.406ZM155.434 37.7764C154.157 37.7764 152.925 37.6205 151.737 37.3088C150.564 36.9821 149.607 36.5664 148.864 36.0616L150.312 32.8101C151.01 33.2555 151.811 33.6267 152.717 33.9237C153.638 34.2057 154.551 34.3468 155.456 34.3468C156.065 34.3468 156.555 34.2948 156.926 34.1909C157.297 34.0721 157.565 33.9237 157.728 33.7455C157.906 33.5525 157.995 33.3298 157.995 33.0774C157.995 32.7211 157.832 32.439 157.505 32.2311C157.179 32.0232 156.755 31.8525 156.236 31.7189C155.716 31.5853 155.137 31.4516 154.499 31.318C153.875 31.1844 153.244 31.0137 152.606 30.8058C151.982 30.5979 151.411 30.3307 150.891 30.0041C150.371 29.6626 149.948 29.2246 149.621 28.6901C149.295 28.1408 149.132 27.4504 149.132 26.619C149.132 25.6836 149.384 24.8373 149.889 24.0801C150.408 23.323 151.18 22.7142 152.205 22.254C153.229 21.7937 154.506 21.5636 156.035 21.5636C157.06 21.5636 158.062 21.6824 159.042 21.9199C160.037 22.1426 160.92 22.4767 161.692 22.9221L160.334 26.1958C159.591 25.795 158.856 25.498 158.129 25.305C157.401 25.0972 156.696 24.9932 156.013 24.9932C155.404 24.9932 154.914 25.06 154.543 25.1937C154.172 25.3124 153.905 25.4758 153.742 25.6836C153.578 25.8915 153.497 26.129 153.497 26.3963C153.497 26.7377 153.652 27.0124 153.964 27.2203C154.291 27.4133 154.714 27.5766 155.234 27.7102C155.768 27.829 156.347 27.9552 156.971 28.0888C157.609 28.2224 158.24 28.3932 158.864 28.601C159.502 28.794 160.081 29.0613 160.601 29.4028C161.12 29.7294 161.536 30.1674 161.848 30.7167C162.175 31.2512 162.338 31.9267 162.338 32.7433C162.338 33.649 162.078 34.4878 161.558 35.2599C161.054 36.0171 160.289 36.6258 159.265 37.086C158.255 37.5463 156.978 37.7764 155.434 37.7764Z" fill="#556CCD"/>
</g>
<defs>
<clipPath id="clip0_61_476">
<rect width="163" height="57.9917" fill="white"/>
</clipPath>
</defs>
</svg>
