<svg width="264" height="199" viewBox="0 0 264 199" fill="none" xmlns="http://www.w3.org/2000/svg">
<path d="M91.6563 311.425C135.825 341.93 189.399 343.916 235.686 328.057C315.735 300.63 341.081 280.792 352.719 225.878C363.204 176.409 344.246 121.443 315.019 97.0288C285.795 72.616 212.428 76.6272 168.455 85.9282C124.483 95.2293 62.4378 130.704 52.1731 176.013C41.9073 221.323 62.2694 291.13 91.6563 311.425ZM102.582 198.421C109.556 165.518 131.75 141.815 179.714 125.381C207.448 115.879 256.606 112.744 279.567 132.77C295.695 146.836 313.086 202.841 305.021 229.481C293.57 267.306 250.475 283.11 224.127 288.685C197.78 294.258 152.385 300.225 130.81 279.518C114.348 263.72 96.301 228.063 102.582 198.421Z" fill="#398B00"/>
<path d="M130.082 304.323C121.554 299.254 113.651 292.302 105.418 283.283C78.7606 254.086 66.7854 206.337 78.1548 174.579C89.0079 144.266 144.095 116.166 178.473 104.673C211.244 93.7157 272.58 91.1877 300.141 120.545C326.735 148.87 341.482 207.6 328.83 234.8C311.508 272.048 276.388 298.541 232.48 307.486C181.073 317.963 153.281 318.113 130.082 304.323ZM285.453 112.966C255.675 95.2621 207.19 98.4676 179.493 107.727C145.71 119.022 91.6509 146.434 81.1857 175.667C71.5403 202.609 78.8552 249.418 107.794 281.113C137.795 313.974 162.143 318.532 231.836 304.333C274.734 295.592 309.022 269.755 325.909 233.444C338.114 207.201 323.659 150.304 297.793 122.751C294.229 118.951 290.062 115.707 285.453 112.966Z" fill="#F7E5DF"/>
<path d="M144.777 261.837C168.063 277.918 196.306 278.966 220.711 270.605C262.914 256.147 276.275 245.686 282.413 216.736C287.941 190.656 277.946 161.678 262.538 148.807C247.129 135.936 208.448 138.05 185.265 142.954C162.082 147.857 129.372 166.56 123.961 190.448C118.548 214.334 129.284 251.137 144.777 261.837ZM150.537 202.259C154.212 184.913 165.914 172.417 191.201 163.753C205.823 158.744 231.738 157.091 243.843 167.648C252.345 175.064 261.515 204.589 257.264 218.634C251.226 238.576 228.507 246.908 214.617 249.846C200.726 252.784 176.793 255.931 165.419 245.014C156.74 236.686 147.226 217.888 150.537 202.259Z" fill="#7AB154"/>
</svg>
