<svg width="372" height="139" viewBox="0 0 372 139" fill="none" xmlns="http://www.w3.org/2000/svg">
<g filter="url(#filter0_d_192_15669)">
<path d="M5.25037 -1L32.4845 72.8834C33.064 74.4556 34.562 75.5 36.2376 75.5H65.2504" stroke="#686767" stroke-width="2.5" stroke-linecap="round"/>
</g>
<g filter="url(#filter1_d_192_15669)">
<path d="M366.75 -3.5L330.064 87.0027C329.452 88.5123 327.986 89.5 326.357 89.5H297.25" stroke="#686767" stroke-width="2.5" stroke-linecap="round"/>
</g>
<g filter="url(#filter2_d_192_15669)">
<rect x="36.5377" y="59.5061" width="291.303" height="55" rx="4" transform="rotate(2.54 36.5377 59.5061)" fill="#212121" shape-rendering="crispEdges"/>
<rect x="35.583" y="58.4628" width="293.303" height="57" rx="5" transform="rotate(2.54 35.583 58.4628)" stroke="#282828" stroke-width="2" shape-rendering="crispEdges"/>
<rect x="41.7433" y="67.2831" width="16" height="16" rx="8" transform="rotate(2.54 41.7433 67.2831)" stroke="#686767"/>
<rect x="305.392" y="79.9282" width="16" height="16" rx="8" transform="rotate(2.54 305.392 79.9282)" stroke="#686767"/>
<path d="M106.636 98.877C102.538 98.6952 99.8316 95.3933 100.032 90.8655C100.234 86.3172 103.243 83.2689 107.402 83.4534C110.557 83.5933 113.028 85.7352 113.469 88.7519L111.974 88.6855C111.48 86.4055 109.678 84.9092 107.281 84.8028C103.982 84.6565 101.615 87.1175 101.446 90.9282C101.278 94.7184 103.418 97.3794 106.716 97.5257C109.114 97.632 111.099 96.3653 111.807 94.3028L113.302 94.3691C112.561 97.1897 109.832 99.0187 106.636 98.877ZM118.329 99.4162C115.4 99.2862 113.589 97.071 113.693 93.7912C113.876 90.5969 115.896 88.5516 118.806 88.6807C121.715 88.8097 123.546 91.0259 123.445 94.2238C123.259 97.5 121.259 99.5462 118.329 99.4162ZM118.385 98.1665C120.495 98.2601 122.002 96.6847 122.112 94.2057C122.222 91.7267 120.86 90.024 118.75 89.9304C116.64 89.8368 115.133 91.4122 115.023 93.8912C114.913 96.3702 116.275 98.0729 118.385 98.1665ZM135.356 89.4148C137.589 89.5139 138.975 91.115 138.873 93.4301L138.578 100.068L137.267 100.01L137.556 93.4949C137.63 91.8149 136.733 90.7487 135.217 90.6814C133.66 90.6124 132.483 91.7097 132.413 93.2872L132.124 99.7818L130.793 99.7228L131.083 93.1872C131.158 91.4867 130.28 90.4624 128.743 90.3942C127.186 90.3252 126.008 91.4225 125.939 92.9796L125.65 99.4946L124.298 99.4347L124.753 89.1908L126.064 89.249L126.019 90.2529C126.669 89.4811 127.673 89.074 128.882 89.1276C130.316 89.1913 131.473 89.9406 132.015 91.1347C132.662 89.9728 133.86 89.3485 135.356 89.4148ZM151.311 90.1226C153.545 90.2217 154.931 91.8228 154.828 94.1379L154.534 100.776L153.223 100.718L153.512 94.2027C153.586 92.5227 152.689 91.4565 151.173 91.3892C149.616 91.3202 148.438 92.4175 148.368 93.995L148.08 100.49L146.749 100.431L147.038 93.895C147.114 92.1945 146.236 91.1702 144.699 91.1021C143.142 91.033 141.964 92.1303 141.895 93.6874L141.606 100.202L140.254 100.142L140.708 89.8986L142.02 89.9568L141.975 90.9607C142.625 90.1889 143.629 89.7818 144.837 89.8355C146.271 89.8991 147.429 90.6484 147.971 91.8425C148.618 90.6806 149.816 90.0563 151.311 90.1226ZM163.641 96.2122L163.876 90.9263L165.228 90.9863L164.774 101.23L163.401 101.169L163.462 99.7966C162.659 100.767 161.423 101.328 160.112 101.27C157.449 101.152 156.141 99.6156 156.267 96.7883L156.541 90.601L157.893 90.661L157.627 96.6638C157.527 98.9175 158.304 99.9168 160.189 100C162.217 100.09 163.532 98.6707 163.641 96.2122ZM171.668 91.0257C174.331 91.1438 175.639 92.6798 175.513 95.5071L175.239 101.694L173.887 101.634L174.153 95.6315C174.253 93.3779 173.476 92.3786 171.591 92.295C169.563 92.205 168.248 93.6247 168.139 96.0832L167.904 101.369L166.552 101.309L167.006 91.0652L168.379 91.1261L168.318 92.4988C169.121 91.5285 170.357 90.9675 171.668 91.0257ZM178.181 88.9539C177.587 88.9275 177.137 88.4149 177.162 87.8617C177.188 87.2676 177.681 86.7968 178.276 86.8232C178.829 86.8477 179.319 87.3621 179.293 87.9563C179.267 88.5299 178.755 88.9793 178.181 88.9539ZM178.742 91.5858L178.287 101.83L176.935 101.77L177.389 91.5258L178.742 91.5858ZM181.106 99.286L181.387 92.9348L179.4 92.8467L179.455 91.6174L181.442 91.7056L181.58 88.5915L182.932 88.6514L182.794 91.7656L184.781 91.8537L184.727 93.083L182.74 92.9948L182.458 99.346C182.398 100.698 182.82 100.902 184.771 100.886L184.72 102.033C182.045 102.181 181.008 101.478 181.106 99.286ZM185.792 106.453C185.239 106.428 184.77 106.366 184.263 106.221L184.314 105.074C184.925 105.183 185.456 105.247 185.866 105.266C186.789 105.286 187.17 105.015 187.585 103.987L188.133 102.739L184.531 91.8426L185.945 91.9053L188.872 100.883L192.44 92.1935L193.833 92.2553L188.838 104.433C188.22 105.883 187.247 106.517 185.792 106.453ZM202.989 103.172C200.059 103.042 198.162 101.377 198.151 98.8515L199.626 98.917C199.512 100.554 200.896 101.745 203.048 101.84C205.281 101.939 206.703 100.894 206.78 99.1522C206.84 97.8 206.099 96.905 204.479 96.4225L201.987 95.6756C199.738 95.0011 198.569 93.5944 198.656 91.6276C198.767 89.1281 200.806 87.5968 203.776 87.7286C206.44 87.8467 208.153 89.4829 208.264 92.0743L206.83 92.0107C206.766 90.2014 205.664 89.1261 203.718 89.0398C201.546 88.9434 200.125 89.9889 200.049 91.6894C199.992 92.9801 200.713 93.8537 202.293 94.3344L204.845 95.1045C207.072 95.7986 208.261 97.2267 208.174 99.1935C208.06 101.754 206.021 103.306 202.989 103.172ZM216.594 98.5612L216.828 93.2753L218.18 93.3353L217.726 103.579L216.353 103.518L216.414 102.146C215.612 103.116 214.376 103.677 213.064 103.619C210.401 103.501 209.094 101.965 209.219 99.1372L209.494 92.95L210.846 93.01L210.58 99.0128C210.48 101.266 211.256 102.266 213.141 102.349C215.17 102.439 216.485 101.02 216.594 98.5612ZM224.928 93.3883C227.775 93.5146 229.565 95.7494 229.422 98.966C229.28 102.183 227.299 104.25 224.451 104.124C222.874 104.054 221.652 103.363 220.925 102.181L220.672 107.877L219.32 107.817L219.959 93.4142L221.27 93.4724L221.198 95.0909C222.051 93.9176 223.35 93.3183 224.928 93.3883ZM224.405 102.849C226.516 102.943 227.938 101.425 228.05 98.9051C228.161 96.3851 226.879 94.7476 224.769 94.654C222.638 94.5595 221.216 96.077 221.104 98.597C220.993 101.097 222.295 102.755 224.405 102.849ZM235.7 93.8662C238.548 93.9925 240.337 96.2273 240.195 99.4439C240.052 102.66 238.072 104.728 235.224 104.602C233.646 104.532 232.425 103.841 231.697 102.659L231.444 108.355L230.092 108.295L230.731 93.8921L232.042 93.9502L231.971 95.5688C232.823 94.3954 234.123 93.7962 235.7 93.8662ZM235.178 103.327C237.288 103.421 238.71 101.903 238.822 99.383C238.934 96.863 237.652 95.2255 235.541 95.1319C233.411 95.0373 231.988 96.5549 231.877 99.0749C231.766 101.574 233.068 103.233 235.178 103.327ZM245.218 105.045C242.288 104.915 240.477 102.7 240.582 99.42C240.764 96.2257 242.785 94.1804 245.694 94.3095C248.603 94.4386 250.435 96.6547 250.334 99.8526C250.147 103.129 248.147 105.175 245.218 105.045ZM245.273 103.795C247.383 103.889 248.89 102.314 249 99.8345C249.11 97.3555 247.749 95.6529 245.639 95.5592C243.528 95.4656 242.021 97.041 241.912 99.52C241.802 101.999 243.163 103.702 245.273 103.795ZM251.641 94.8196L253.014 94.8805L252.954 96.2327C253.778 95.2429 255.055 94.6837 256.446 94.7865L256.39 96.0567C254.262 95.9007 252.885 97.3177 252.773 99.8376L252.539 105.123L251.186 105.063L251.641 94.8196ZM258.102 102.702L258.384 96.3505L256.397 96.2623L256.451 95.033L258.439 95.1212L258.577 92.0071L259.929 92.0671L259.791 95.1812L261.778 95.2693L261.724 96.4986L259.736 96.4104L259.455 102.762C259.395 104.114 259.817 104.317 261.768 104.301L261.717 105.448C259.041 105.597 258.005 104.894 258.102 102.702Z" fill="#B6B1B1"/>
</g>
<g filter="url(#filter3_d_192_15669)">
<path d="M43.3896 57.9852C43.1053 57.3561 42.3648 57.0766 41.7357 57.3609C41.1066 57.6452 40.8271 58.3856 41.1114 59.0147L42.2505 58.5L43.3896 57.9852ZM44.0543 76.2048L44.0543 74.9548L44.0543 76.2048ZM41.1561 76.2048L41.1561 77.4548L44.0543 77.4548L44.0543 76.2048L44.0543 74.9548L41.1561 74.9548L41.1561 76.2048ZM47.6994 70.5576L48.8385 70.0428L43.3896 57.9852L42.2505 58.5L41.1114 59.0147L46.5603 71.0724L47.6994 70.5576ZM44.0543 76.2048L44.0543 77.4548C47.8676 77.4548 50.4089 73.5178 48.8385 70.0428L47.6994 70.5576L46.5603 71.0724C47.3829 72.8926 46.0518 74.9548 44.0543 74.9548L44.0543 76.2048Z" fill="#686767"/>
</g>
<g filter="url(#filter4_d_192_15669)">
<path d="M319.111 70.9852C319.395 70.3561 320.136 70.0766 320.765 70.3609C321.394 70.6452 321.674 71.3856 321.389 72.0147L320.25 71.5L319.111 70.9852ZM318.446 89.2048L318.446 87.9548L318.446 89.2048ZM321.345 89.2048L321.345 90.4548L318.446 90.4548L318.446 89.2048L318.446 87.9548L321.345 87.9548L321.345 89.2048ZM314.801 83.5576L313.662 83.0428L319.111 70.9852L320.25 71.5L321.389 72.0147L315.94 84.0724L314.801 83.5576ZM318.446 89.2048L318.446 90.4548C314.633 90.4548 312.092 86.5178 313.662 83.0428L314.801 83.5576L315.94 84.0724C315.118 85.8926 316.449 87.9548 318.446 87.9548L318.446 89.2048Z" fill="#686767"/>
</g>
<defs>
<filter id="filter0_d_192_15669" x="0" y="-2.25024" width="70.5004" height="87.0002" filterUnits="userSpaceOnUse" color-interpolation-filters="sRGB">
<feFlood flood-opacity="0" result="BackgroundImageFix"/>
<feColorMatrix in="SourceAlpha" type="matrix" values="0 0 0 0 0 0 0 0 0 0 0 0 0 0 0 0 0 0 127 0" result="hardAlpha"/>
<feOffset dy="4"/>
<feGaussianBlur stdDeviation="2"/>
<feComposite in2="hardAlpha" operator="out"/>
<feColorMatrix type="matrix" values="0 0 0 0 0 0 0 0 0 0 0 0 0 0 0 0 0 0 0.25 0"/>
<feBlend mode="normal" in2="BackgroundImageFix" result="effect1_dropShadow_192_15669"/>
<feBlend mode="normal" in="SourceGraphic" in2="effect1_dropShadow_192_15669" result="shape"/>
</filter>
<filter id="filter1_d_192_15669" x="292" y="-4.75024" width="80.0004" height="103.5" filterUnits="userSpaceOnUse" color-interpolation-filters="sRGB">
<feFlood flood-opacity="0" result="BackgroundImageFix"/>
<feColorMatrix in="SourceAlpha" type="matrix" values="0 0 0 0 0 0 0 0 0 0 0 0 0 0 0 0 0 0 127 0" result="hardAlpha"/>
<feOffset dy="4"/>
<feGaussianBlur stdDeviation="2"/>
<feComposite in2="hardAlpha" operator="out"/>
<feColorMatrix type="matrix" values="0 0 0 0 0 0 0 0 0 0 0 0 0 0 0 0 0 0 0.25 0"/>
<feBlend mode="normal" in2="BackgroundImageFix" result="effect1_dropShadow_192_15669"/>
<feBlend mode="normal" in="SourceGraphic" in2="effect1_dropShadow_192_15669" result="shape"/>
</filter>
<filter id="filter2_d_192_15669" x="28.357" y="57.7627" width="304.941" height="79.3423" filterUnits="userSpaceOnUse" color-interpolation-filters="sRGB">
<feFlood flood-opacity="0" result="BackgroundImageFix"/>
<feColorMatrix in="SourceAlpha" type="matrix" values="0 0 0 0 0 0 0 0 0 0 0 0 0 0 0 0 0 0 127 0" result="hardAlpha"/>
<feOffset dy="4"/>
<feGaussianBlur stdDeviation="2"/>
<feComposite in2="hardAlpha" operator="out"/>
<feColorMatrix type="matrix" values="0 0 0 0 0 0 0 0 0 0 0 0 0 0 0 0 0 0 0.25 0"/>
<feBlend mode="normal" in2="BackgroundImageFix" result="effect1_dropShadow_192_15669"/>
<feBlend mode="normal" in="SourceGraphic" in2="effect1_dropShadow_192_15669" result="shape"/>
</filter>
<filter id="filter3_d_192_15669" x="37.0002" y="57.2498" width="16.3102" height="28.2051" filterUnits="userSpaceOnUse" color-interpolation-filters="sRGB">
<feFlood flood-opacity="0" result="BackgroundImageFix"/>
<feColorMatrix in="SourceAlpha" type="matrix" values="0 0 0 0 0 0 0 0 0 0 0 0 0 0 0 0 0 0 127 0" result="hardAlpha"/>
<feOffset dy="4"/>
<feGaussianBlur stdDeviation="2"/>
<feComposite in2="hardAlpha" operator="out"/>
<feColorMatrix type="matrix" values="0 0 0 0 0 0 0 0 0 0 0 0 0 0 0 0 0 0 0.25 0"/>
<feBlend mode="normal" in2="BackgroundImageFix" result="effect1_dropShadow_192_15669"/>
<feBlend mode="normal" in="SourceGraphic" in2="effect1_dropShadow_192_15669" result="shape"/>
</filter>
<filter id="filter4_d_192_15669" x="309.19" y="70.2498" width="16.3103" height="28.2051" filterUnits="userSpaceOnUse" color-interpolation-filters="sRGB">
<feFlood flood-opacity="0" result="BackgroundImageFix"/>
<feColorMatrix in="SourceAlpha" type="matrix" values="0 0 0 0 0 0 0 0 0 0 0 0 0 0 0 0 0 0 127 0" result="hardAlpha"/>
<feOffset dy="4"/>
<feGaussianBlur stdDeviation="2"/>
<feComposite in2="hardAlpha" operator="out"/>
<feColorMatrix type="matrix" values="0 0 0 0 0 0 0 0 0 0 0 0 0 0 0 0 0 0 0.25 0"/>
<feBlend mode="normal" in2="BackgroundImageFix" result="effect1_dropShadow_192_15669"/>
<feBlend mode="normal" in="SourceGraphic" in2="effect1_dropShadow_192_15669" result="shape"/>
</filter>
</defs>
</svg>
