<svg width="372" height="139" viewBox="0 0 372 139" fill="none" xmlns="http://www.w3.org/2000/svg">
<g filter="url(#filter0_d_192_10561)">
<path d="M5.25034 -1L32.4845 72.8834C33.064 74.4556 34.562 75.5 36.2376 75.5H65.2503" stroke="#686767" stroke-width="2.5" stroke-linecap="round"/>
</g>
<g filter="url(#filter1_d_192_10561)">
<path d="M366.75 -3.5L330.064 87.0027C329.452 88.5123 327.986 89.5 326.357 89.5H297.25" stroke="#686767" stroke-width="2.5" stroke-linecap="round"/>
</g>
<g filter="url(#filter2_d_192_10561)">
<rect x="36.5377" y="59.5061" width="291.303" height="55" rx="4" transform="rotate(2.54 36.5377 59.5061)" fill="#212121" shape-rendering="crispEdges"/>
<rect x="35.583" y="58.4628" width="293.303" height="57" rx="5" transform="rotate(2.54 35.583 58.4628)" stroke="#282828" stroke-width="2" shape-rendering="crispEdges"/>
<rect x="41.7433" y="67.2831" width="16" height="16" rx="8" transform="rotate(2.54 41.7433 67.2831)" stroke="#686767"/>
<rect x="305.392" y="79.9282" width="16" height="16" rx="8" transform="rotate(2.54 305.392 79.9282)" stroke="#686767"/>
<path d="M81.3015 96.2134L81.2433 97.5246L71.8805 97.1092L72.5439 82.1532L81.8863 82.5677L81.8281 83.8789L73.8789 83.5262L73.6353 89.0169L80.9085 89.3396L80.8503 90.6508L73.5772 90.3281L73.3318 95.8598L81.3015 96.2134ZM90.7835 89.2234L91.0607 82.9746L92.4129 83.0346L91.7494 97.9906L90.4382 97.9325L90.51 96.3139C89.6574 97.4873 88.358 98.0865 86.7805 98.0165C83.9327 97.8902 82.1433 95.6554 82.2859 92.4388C82.4286 89.2223 84.4089 87.1547 87.2567 87.281C88.8343 87.351 90.0558 88.0415 90.7835 89.2234ZM86.9393 96.7508C89.07 96.8454 90.4922 95.3278 90.6039 92.8078C90.7148 90.3083 89.413 88.6494 87.3028 88.5558C85.1926 88.4622 83.7704 89.9797 83.6586 92.4997C83.5468 95.0197 84.829 96.6572 86.9393 96.7508ZM100.959 93.4314L101.194 88.1456L102.546 88.2056L102.092 98.4494L100.719 98.3885L100.78 97.0158C99.9772 97.9861 98.7412 98.5471 97.43 98.489C94.7666 98.3708 93.4593 96.8348 93.5848 94.0075L93.8592 87.8202L95.2114 87.8802L94.9451 93.8831C94.8452 96.1367 95.6219 97.136 97.5068 97.2196C99.5351 97.3096 100.85 95.8899 100.959 93.4314ZM107.711 98.945C104.863 98.8187 103.053 96.583 103.194 93.4074C103.337 90.1703 105.38 88.085 108.31 88.2149C110.563 88.3149 112.244 89.7648 112.558 91.9342L111.186 91.8733C110.919 90.4861 109.77 89.5319 108.254 89.4647C106.124 89.3702 104.637 90.9465 104.526 93.446C104.417 95.9045 105.718 97.5839 107.767 97.6748C109.304 97.7429 110.613 96.9183 111.062 95.5834L112.435 95.6443C111.87 97.7336 109.985 99.0459 107.711 98.945ZM117.628 88.6283C120.148 88.7401 121.562 90.1782 121.455 92.5752L121.157 99.2952L119.805 99.2352L119.865 97.883C119.041 98.8729 117.746 99.3902 116.25 99.3238C114.119 99.2293 112.779 97.9792 112.861 96.1148C112.944 94.2505 114.369 93.1435 116.881 92.9676L118.693 92.8427C119.414 92.7926 119.87 92.6896 120.104 92.4947C120.137 90.8334 119.292 89.9748 117.551 89.8976C115.748 89.8176 114.726 90.6345 114.745 92.0722L113.392 92.0123C113.364 89.8761 115.087 88.5156 117.628 88.6283ZM116.428 98.0795C118.539 98.1731 119.915 96.7562 120.022 94.3386L120.046 93.806C119.258 93.9968 117.899 94.0802 116.953 94.1204C115.201 94.2685 114.267 94.966 114.215 96.1543C114.164 97.3016 114.953 98.0141 116.428 98.0795ZM123.628 96.7361L123.909 90.3849L121.922 90.2968L121.976 89.0675L123.964 89.1557L124.102 86.0416L125.454 86.1015L125.316 89.2157L127.303 89.3038L127.249 90.5331L125.261 90.4449L124.98 96.7961C124.92 98.1483 125.342 98.3518 127.293 98.3357L127.242 99.483C124.567 99.6312 123.53 98.9283 123.628 96.7361ZM129.197 86.7808C128.603 86.7544 128.153 86.2418 128.178 85.6886C128.204 85.0945 128.697 84.6237 129.292 84.6501C129.845 84.6746 130.335 85.189 130.309 85.7832C130.283 86.3568 129.771 86.8062 129.197 86.7808ZM129.758 89.4127L129.303 99.6565L127.951 99.5965L128.406 89.3527L129.758 89.4127ZM135.291 100.168C132.361 100.039 130.551 97.8233 130.655 94.5434C130.838 91.3492 132.858 89.3039 135.767 89.433C138.677 89.562 140.508 91.7782 140.407 94.9761C140.221 98.2523 138.221 100.298 135.291 100.168ZM135.347 98.9187C137.457 99.0124 138.964 97.437 139.074 94.958C139.184 92.4789 137.822 90.7763 135.712 90.6827C133.602 90.5891 132.095 92.1645 131.985 94.6435C131.875 97.1225 133.236 98.8251 135.347 98.9187ZM146.376 89.9036C149.039 90.0217 150.347 91.5577 150.221 94.385L149.947 100.572L148.594 100.512L148.861 94.5094C148.961 92.2558 148.184 91.2565 146.299 91.1729C144.271 91.0829 142.956 92.5026 142.847 94.9611L142.612 100.247L141.26 100.187L141.714 89.9431L143.087 90.004L143.026 91.3767C143.829 90.4064 145.065 89.8454 146.376 89.9036ZM166.139 98.6424L168.295 101.386L166.595 101.311L165.273 99.651C164.03 100.828 162.404 101.392 160.498 101.307C157.364 101.168 155.406 99.4802 155.517 96.9807C155.601 95.0958 156.728 93.7499 159.461 92.2905C158.161 90.5906 157.728 89.7092 157.772 88.7258C157.852 86.9229 159.237 85.7732 161.204 85.8604C163.089 85.944 164.329 87.1486 164.251 88.8901C164.186 90.3652 163.378 91.4584 161.436 92.6655L165.303 97.579C165.752 96.7162 165.984 95.6385 166.021 94.3469L167.353 94.406C167.302 96.0254 166.888 97.4851 166.139 98.6424ZM159.124 88.7858C159.094 89.4619 159.437 90.0724 160.678 91.7081C162.154 90.8293 162.85 89.9364 162.899 88.8301C162.944 87.8262 162.275 87.1602 161.128 87.1093C159.919 87.0556 159.172 87.6999 159.124 88.7858ZM160.533 100.057C162.213 100.131 163.589 99.6584 164.515 98.6731L160.238 93.2898C157.823 94.5169 156.938 95.5041 156.869 97.0406C156.79 98.8231 158.136 99.9502 160.533 100.057ZM182.584 100.706L182.526 102.018L173.163 101.602L173.827 86.6462L183.169 87.0606L183.111 88.3718L175.162 88.0192L174.918 93.5099L182.191 93.8325L182.133 95.1437L174.86 94.8211L174.615 100.353L182.584 100.706ZM195.096 92.0648C197.329 92.1638 198.715 93.7649 198.613 96.08L198.318 102.718L197.007 102.66L197.296 96.1448C197.37 94.4648 196.473 93.3986 194.957 93.3314C193.4 93.2623 192.223 94.3596 192.153 95.9372L191.864 102.432L190.533 102.373L190.823 95.8371C190.898 94.1367 190.02 93.1123 188.483 93.0442C186.926 92.9751 185.748 94.0724 185.679 95.6295L185.39 102.145L184.038 102.085L184.493 91.8408L185.804 91.8989L185.759 92.9028C186.409 92.1311 187.413 91.724 188.621 91.7776C190.056 91.8412 191.213 92.5905 191.755 93.7846C192.402 92.6227 193.6 91.9984 195.096 92.0648ZM205.417 92.5227C208.265 92.649 210.054 94.8838 209.912 98.1004C209.769 101.317 207.789 103.385 204.941 103.258C203.363 103.188 202.142 102.498 201.414 101.316L201.162 107.011L199.809 106.951L200.448 92.5486L201.76 92.6067L201.688 94.2253C202.54 93.0519 203.84 92.4527 205.417 92.5227ZM204.895 101.983C207.005 102.077 208.427 100.559 208.539 98.0395C208.651 95.5195 207.369 93.882 205.258 93.7883C203.128 93.6938 201.706 95.2114 201.594 97.7314C201.483 100.231 202.785 101.89 204.895 101.983ZM214.935 103.702C212.005 103.572 210.194 101.356 210.299 98.0765C210.482 94.8822 212.502 92.8369 215.411 92.966C218.32 93.095 220.152 95.3112 220.051 98.5091C219.865 101.785 217.865 103.831 214.935 103.702ZM214.99 102.452C217.101 102.545 218.607 100.97 218.717 98.491C218.827 96.012 217.466 94.3093 215.356 94.2157C213.245 94.1221 211.739 95.6975 211.629 98.1765C211.519 100.656 212.88 102.358 214.99 102.452ZM229.976 101.885L232.995 93.9923L234.388 94.0542L230.492 104.145L229.242 104.09L226.954 95.9824L223.936 103.854L222.686 103.799L219.719 93.4034L221.112 93.4652L223.419 101.615L226.419 93.7006L227.668 93.7561L229.976 101.885ZM238.16 104.732C235.271 104.604 233.501 102.39 233.606 99.1104C233.789 95.8956 235.768 93.869 238.636 93.9962C241.525 94.1244 243.336 96.3396 243.194 99.5357L243.181 99.8225L234.905 99.4349C234.882 101.795 236.207 103.393 238.215 103.482C239.712 103.528 241.001 102.702 241.45 101.367L242.802 101.427C242.258 103.518 240.372 104.83 238.16 104.732ZM235.04 98.2502L241.841 98.5724C241.621 96.592 240.363 95.3251 238.581 95.246C236.819 95.1678 235.433 96.3175 235.04 98.2502ZM244.501 94.5028L245.874 94.5636L245.814 95.9158C246.638 94.926 247.915 94.3668 249.306 94.4696L249.25 95.7398C247.122 95.5838 245.745 97.0008 245.633 99.5208L245.399 104.807L244.047 104.747L244.501 94.5028ZM260.611 94.9711C262.844 95.0701 264.231 96.6712 264.128 98.9863L263.833 105.624L262.522 105.566L262.811 99.0511C262.886 97.3711 261.989 96.3049 260.473 96.2377C258.916 96.1686 257.738 97.2659 257.668 98.8435L257.38 105.338L256.048 105.279L256.338 98.7434C256.414 97.0429 255.535 96.0186 253.999 95.9505C252.442 95.8814 251.264 96.9787 251.195 98.5358L250.906 105.051L249.554 104.991L250.008 94.7471L251.319 94.8052L251.275 95.8091C251.925 95.0374 252.928 94.6303 254.137 94.6839C255.571 94.7475 256.728 95.4968 257.271 96.6909C257.918 95.529 259.115 94.9047 260.611 94.9711ZM269.596 106.126C266.707 105.998 264.937 103.785 265.042 100.505C265.225 97.2902 267.204 95.2635 270.072 95.3908C272.961 95.5189 274.772 97.7342 274.63 100.93L274.617 101.217L266.341 100.829C266.319 103.189 267.644 104.787 269.651 104.877C271.148 104.922 272.437 104.097 272.886 102.762L274.238 102.822C273.694 104.912 271.809 106.224 269.596 106.126ZM266.476 99.6448L273.277 99.967C273.057 97.9865 271.799 96.7196 270.017 96.6405C268.255 96.5624 266.87 97.7121 266.476 99.6448ZM280.599 95.8577C283.262 95.9759 284.569 97.5119 284.444 100.339L284.17 106.526L282.817 106.466L283.084 100.464C283.184 98.2099 282.407 97.2107 280.522 97.1271C278.494 97.0371 277.179 98.4568 277.069 100.915L276.835 106.201L275.483 106.141L275.937 95.8973L277.31 95.9582L277.249 97.3308C278.052 96.3606 279.288 95.7996 280.599 95.8577ZM286.824 103.976L287.106 97.6244L285.119 97.5362L285.173 96.307L287.16 96.3951L287.298 93.281L288.651 93.341L288.513 96.4551L290.5 96.5433L290.445 97.7725L288.458 97.6844L288.176 104.036C288.116 105.388 288.538 105.591 290.489 105.575L290.438 106.722C287.763 106.871 286.727 106.168 286.824 103.976Z" fill="#B6B1B1"/>
</g>
<g filter="url(#filter3_d_192_10561)">
<path d="M43.3895 57.9852C43.1052 57.3561 42.3648 57.0766 41.7357 57.3609C41.1066 57.6452 40.8271 58.3856 41.1114 59.0147L42.2504 58.5L43.3895 57.9852ZM44.0543 76.2048L44.0543 74.9548L44.0543 76.2048ZM41.156 76.2048L41.156 77.4548L44.0543 77.4548L44.0543 76.2048L44.0543 74.9548L41.156 74.9548L41.156 76.2048ZM47.6994 70.5576L48.8385 70.0428L43.3895 57.9852L42.2504 58.5L41.1114 59.0147L46.5603 71.0724L47.6994 70.5576ZM44.0543 76.2048L44.0543 77.4548C47.8676 77.4548 50.4088 73.5178 48.8385 70.0428L47.6994 70.5576L46.5603 71.0724C47.3829 72.8926 46.0517 74.9548 44.0543 74.9548L44.0543 76.2048Z" fill="#686767"/>
</g>
<g filter="url(#filter4_d_192_10561)">
<path d="M319.111 70.9852C319.395 70.3561 320.136 70.0766 320.765 70.3609C321.394 70.6452 321.674 71.3856 321.389 72.0147L320.25 71.5L319.111 70.9852ZM318.446 89.2048L318.446 87.9548L318.446 89.2048ZM321.345 89.2048L321.345 90.4548L318.446 90.4548L318.446 89.2048L318.446 87.9548L321.345 87.9548L321.345 89.2048ZM314.801 83.5576L313.662 83.0428L319.111 70.9852L320.25 71.5L321.389 72.0147L315.94 84.0724L314.801 83.5576ZM318.446 89.2048L318.446 90.4548C314.633 90.4548 312.092 86.5178 313.662 83.0428L314.801 83.5576L315.94 84.0724C315.118 85.8926 316.449 87.9548 318.446 87.9548L318.446 89.2048Z" fill="#686767"/>
</g>
<defs>
<filter id="filter0_d_192_10561" x="0" y="-2.25024" width="70.5003" height="87.0002" filterUnits="userSpaceOnUse" color-interpolation-filters="sRGB">
<feFlood flood-opacity="0" result="BackgroundImageFix"/>
<feColorMatrix in="SourceAlpha" type="matrix" values="0 0 0 0 0 0 0 0 0 0 0 0 0 0 0 0 0 0 127 0" result="hardAlpha"/>
<feOffset dy="4"/>
<feGaussianBlur stdDeviation="2"/>
<feComposite in2="hardAlpha" operator="out"/>
<feColorMatrix type="matrix" values="0 0 0 0 0 0 0 0 0 0 0 0 0 0 0 0 0 0 0.25 0"/>
<feBlend mode="normal" in2="BackgroundImageFix" result="effect1_dropShadow_192_10561"/>
<feBlend mode="normal" in="SourceGraphic" in2="effect1_dropShadow_192_10561" result="shape"/>
</filter>
<filter id="filter1_d_192_10561" x="292" y="-4.75024" width="80.0003" height="103.5" filterUnits="userSpaceOnUse" color-interpolation-filters="sRGB">
<feFlood flood-opacity="0" result="BackgroundImageFix"/>
<feColorMatrix in="SourceAlpha" type="matrix" values="0 0 0 0 0 0 0 0 0 0 0 0 0 0 0 0 0 0 127 0" result="hardAlpha"/>
<feOffset dy="4"/>
<feGaussianBlur stdDeviation="2"/>
<feComposite in2="hardAlpha" operator="out"/>
<feColorMatrix type="matrix" values="0 0 0 0 0 0 0 0 0 0 0 0 0 0 0 0 0 0 0.25 0"/>
<feBlend mode="normal" in2="BackgroundImageFix" result="effect1_dropShadow_192_10561"/>
<feBlend mode="normal" in="SourceGraphic" in2="effect1_dropShadow_192_10561" result="shape"/>
</filter>
<filter id="filter2_d_192_10561" x="28.357" y="57.7627" width="304.941" height="79.3423" filterUnits="userSpaceOnUse" color-interpolation-filters="sRGB">
<feFlood flood-opacity="0" result="BackgroundImageFix"/>
<feColorMatrix in="SourceAlpha" type="matrix" values="0 0 0 0 0 0 0 0 0 0 0 0 0 0 0 0 0 0 127 0" result="hardAlpha"/>
<feOffset dy="4"/>
<feGaussianBlur stdDeviation="2"/>
<feComposite in2="hardAlpha" operator="out"/>
<feColorMatrix type="matrix" values="0 0 0 0 0 0 0 0 0 0 0 0 0 0 0 0 0 0 0.25 0"/>
<feBlend mode="normal" in2="BackgroundImageFix" result="effect1_dropShadow_192_10561"/>
<feBlend mode="normal" in="SourceGraphic" in2="effect1_dropShadow_192_10561" result="shape"/>
</filter>
<filter id="filter3_d_192_10561" x="37.0001" y="57.2498" width="16.3102" height="28.2051" filterUnits="userSpaceOnUse" color-interpolation-filters="sRGB">
<feFlood flood-opacity="0" result="BackgroundImageFix"/>
<feColorMatrix in="SourceAlpha" type="matrix" values="0 0 0 0 0 0 0 0 0 0 0 0 0 0 0 0 0 0 127 0" result="hardAlpha"/>
<feOffset dy="4"/>
<feGaussianBlur stdDeviation="2"/>
<feComposite in2="hardAlpha" operator="out"/>
<feColorMatrix type="matrix" values="0 0 0 0 0 0 0 0 0 0 0 0 0 0 0 0 0 0 0.25 0"/>
<feBlend mode="normal" in2="BackgroundImageFix" result="effect1_dropShadow_192_10561"/>
<feBlend mode="normal" in="SourceGraphic" in2="effect1_dropShadow_192_10561" result="shape"/>
</filter>
<filter id="filter4_d_192_10561" x="309.19" y="70.2498" width="16.3102" height="28.2051" filterUnits="userSpaceOnUse" color-interpolation-filters="sRGB">
<feFlood flood-opacity="0" result="BackgroundImageFix"/>
<feColorMatrix in="SourceAlpha" type="matrix" values="0 0 0 0 0 0 0 0 0 0 0 0 0 0 0 0 0 0 127 0" result="hardAlpha"/>
<feOffset dy="4"/>
<feGaussianBlur stdDeviation="2"/>
<feComposite in2="hardAlpha" operator="out"/>
<feColorMatrix type="matrix" values="0 0 0 0 0 0 0 0 0 0 0 0 0 0 0 0 0 0 0.25 0"/>
<feBlend mode="normal" in2="BackgroundImageFix" result="effect1_dropShadow_192_10561"/>
<feBlend mode="normal" in="SourceGraphic" in2="effect1_dropShadow_192_10561" result="shape"/>
</filter>
</defs>
</svg>
