<svg width="799" height="107" viewBox="0 0 799 107" fill="none" xmlns="http://www.w3.org/2000/svg">
<path d="M316.5 3.33936L324.548 38.8892L356 28.9459L332.596 54.5413L356 80.1367L324.548 70.1934L316.5 105.743L308.452 70.1934L277 80.1367L300.404 54.5413L277 28.9459L308.452 38.8892L316.5 3.33936Z" fill="#FF6633"/>
<path d="M667 16.6963L673.893 53.3502L706 61.2197L673.893 69.0892L667 105.743L660.107 69.0892L628 61.2197L660.107 53.3502L667 16.6963Z" fill="#CC3333"/>
<path d="M512.58 61.2197C564.275 100.3 536.171 131.978 501.5 73.7085C466.829 131.978 438.725 100.3 490.42 61.2197C438.725 22.1394 466.829 -9.53883 501.5 48.7309C536.171 -9.53883 564.275 22.1394 512.58 61.2197Z" fill="#3A3A99"/>
<path d="M79 61.2197C79 59.4165 76.2452 57.9584 65.3347 57.9584C57.3765 57.9584 47.3052 58.7375 42.4276 59.8617C46.5844 56.7674 54.1971 49.2874 59.8153 42.9428C67.5267 34.2496 68.5634 31.0106 67.4279 29.7417C66.2925 28.4727 63.4291 29.6303 55.7177 38.3235C50.0896 44.6681 43.4544 53.25 40.7095 57.925C41.7068 52.4263 42.3979 41.0729 42.3979 32.1014C42.3979 19.8018 41.1045 16.6963 39.5049 16.6963C37.9054 16.6963 36.6021 19.8018 36.6021 32.1014C36.6021 41.0729 37.2932 52.4263 38.2905 57.925C35.5456 53.2389 28.9104 44.657 23.2823 38.3235C15.5709 29.6303 12.6977 28.4616 11.5721 29.7417C10.4464 31.0217 11.4733 34.2496 19.1847 42.9428C24.8128 49.2874 32.4254 56.7674 36.5724 59.8617C31.6948 58.7375 21.6235 57.9584 13.6653 57.9584C2.75478 57.9584 0 59.4165 0 61.2197C0 63.0229 2.75478 64.4811 13.6653 64.4811C21.6235 64.4811 31.6948 63.7019 36.5724 62.5777C32.4156 65.6721 24.8128 73.152 19.1847 79.4966C11.4733 88.1898 10.4366 91.4289 11.5721 92.6978C12.7075 93.9778 15.5709 92.8091 23.2823 84.1159C28.9104 77.7713 35.5456 69.1894 38.2905 64.5144C37.2932 70.0131 36.6021 81.3666 36.6021 90.338C36.6021 102.638 37.8955 105.743 39.5049 105.743C41.1144 105.743 42.3979 102.638 42.3979 90.338C42.3979 81.3666 41.7068 70.0131 40.7095 64.5144C43.4544 69.2005 50.0896 77.7824 55.7177 84.1159C63.4291 92.8091 66.3023 93.9778 67.4279 92.6978C68.5634 91.4177 67.5267 88.1898 59.8153 79.4966C54.1872 73.152 46.5746 65.6721 42.4276 62.5777C47.3052 63.7019 57.3765 64.4811 65.3347 64.4811C76.2452 64.4811 79 63.0229 79 61.2197Z" fill="#FFCC33"/>
<path d="M798.759 72.6479C797.249 68.596 787.789 62.6962 767.824 61.16C787.76 59.3345 797.16 53.2789 798.621 49.2158C799.026 48.0915 798.868 47.034 798.177 46.2325C796.232 44.0062 790.712 44.2622 783.692 46.8002C791.127 40.2771 793.26 35.0119 791.936 32.6853C790.85 30.7818 787.858 31.0379 783.958 33.2865C785.903 28.8561 786.091 25.4832 784.383 24.281C782.299 22.8116 777.658 25.2939 771.971 33.7651C774.124 25.8171 774.282 19.5834 772.277 17.4239C771.566 16.6558 770.618 16.4888 769.631 16.9564C766.037 18.6595 760.794 29.3236 759.441 51.8095C757.821 29.3459 752.45 18.7485 748.846 17.1122C747.849 16.6558 746.911 16.8339 746.2 17.6131C744.225 19.8061 744.452 26.0286 746.703 33.9432C740.917 25.5611 736.246 23.1567 734.183 24.6483C732.494 25.8728 732.721 29.2457 734.716 33.6427C730.786 31.4497 727.794 31.2382 726.728 33.164C725.434 35.5128 727.626 40.7335 735.141 47.1565C728.09 44.7298 722.561 44.5517 720.645 46.8114C719.964 47.6129 719.816 48.6815 720.231 49.7947C721.741 53.8466 731.201 59.7575 751.146 61.2825C731.221 63.1081 721.82 69.1637 720.369 73.2267C719.964 74.351 720.122 75.4085 720.813 76.21C722.758 78.4363 728.278 78.1803 735.299 75.6423C727.863 82.1654 725.731 87.4307 727.054 89.7572C728.14 91.6607 731.132 91.4047 735.032 89.1561C733.087 93.5865 732.899 96.9594 734.607 98.1616C736.691 99.631 741.322 97.1486 747.019 88.6774C744.867 96.6254 744.709 102.859 746.713 105.019C747.138 105.486 747.651 105.72 748.214 105.742C748.579 105.753 748.974 105.664 749.369 105.475C752.963 103.772 758.207 93.1078 759.559 70.6219C761.179 93.0856 766.55 103.683 770.154 105.319C770.49 105.475 770.826 105.553 771.142 105.564C771.764 105.586 772.336 105.33 772.8 104.818C774.775 102.625 774.548 96.4028 772.297 88.4882C778.083 96.8703 782.754 99.2747 784.817 97.7831C786.506 96.5586 786.279 93.1857 784.284 88.7887C788.214 90.9817 791.206 91.1932 792.272 89.2674C793.566 86.9186 791.374 81.6979 783.859 75.275C790.91 77.7016 796.439 77.8798 798.355 75.62C799.036 74.8186 799.184 73.7499 798.769 72.6368L798.759 72.6479Z" fill="#438BED"/>
<path d="M142.639 70.2914L171 61.2197L142.639 52.1481L146.53 44.2786L139.548 48.6752L131.5 16.6963L123.452 48.6752L116.48 44.2786L120.371 52.1481L92 61.2197L120.371 70.2914L116.48 78.1609L123.452 73.7642L131.5 105.743L139.548 73.7642L146.53 78.1609L142.639 70.2914Z" fill="#935FC4"/>
<path d="M584.485 0V53.1053H614.004L584.485 0Z" fill="#27913A"/>
<path d="M584.485 106.211V53.1055H554.965L584.485 106.211Z" fill="#27913A"/>
<path d="M435.768 46.3044H422.732V31.6116C422.732 23.3748 416.807 16.6963 409.5 16.6963C402.193 16.6963 396.268 23.3748 396.268 31.6116V46.3044H383.232C375.925 46.3044 370 52.9829 370 61.2197C370 69.4565 375.925 76.1351 383.232 76.1351H396.268V90.8278C396.268 99.0646 402.193 105.743 409.5 105.743C416.807 105.743 422.732 99.0646 422.732 90.8278V76.1351H435.768C443.075 76.1351 449 69.4565 449 61.2197C449 52.9829 443.075 46.3044 435.768 46.3044Z" fill="#FF6699"/>
<path d="M224.5 12.2441L233.486 27.8718L248.911 21.1695L248.022 39.7537L264 44.5443L253.572 58.9937L264 73.4432L248.022 78.2227L248.911 96.818L233.486 90.1157L224.5 105.743L215.514 90.1157L200.089 96.818L200.978 78.2227L185 73.4432L195.428 58.9937L185 44.5443L200.978 39.7537L200.089 21.1695L215.514 27.8718L224.5 12.2441Z" fill="#66CC66"/>
</svg>
