<svg width="194" height="195" viewBox="0 0 194 195" fill="none" xmlns="http://www.w3.org/2000/svg">
<path d="M86.7375 165.156C73.709 159.53 62.376 151.899 52.7385 142.261C43.101 132.624 35.4731 121.291 29.8548 108.262C24.2365 95.234 21.4238 81.3132 21.4167 66.5C21.4095 51.6868 24.2223 37.7659 29.8548 24.7375C35.4874 11.709 43.1153 0.376015 52.7385 -9.26149C62.3618 -18.899 73.6948 -26.5269 86.7375 -32.1452C99.7803 -37.7635 113.701 -40.5762 128.5 -40.5834C143.299 -40.5905 157.22 -37.7778 170.262 -32.1452C183.305 -26.5126 194.638 -18.8847 204.261 -9.26149C213.885 0.361736 221.516 11.6947 227.156 24.7375C232.796 37.7802 235.605 51.701 235.583 66.5C235.562 81.2989 232.749 95.2197 227.145 108.262C221.541 121.305 213.913 132.638 204.261 142.261C194.61 151.885 183.277 159.516 170.262 165.156C157.248 170.796 143.327 173.605 128.5 173.583C113.673 173.562 99.7517 170.76 86.7375 165.156ZM189.27 127.27C205.868 110.672 214.167 90.4152 214.167 66.5C214.167 42.5847 205.868 22.3281 189.27 5.73018C172.672 -10.8677 152.415 -19.1667 128.5 -19.1667C104.585 -19.1667 84.3281 -10.8677 67.7302 5.73018C51.1323 22.3281 42.8333 42.5847 42.8333 66.5C42.8333 90.4152 51.1323 110.672 67.7302 127.27C84.3281 143.868 104.585 152.167 128.5 152.167C152.415 152.167 172.672 143.868 189.27 127.27ZM82.9896 112.01C70.4965 99.5173 64.25 84.3472 64.25 66.5C64.25 48.6527 70.4965 33.4826 82.9896 20.9896C95.4826 8.4965 110.653 2.24997 128.5 2.24997C146.347 2.24997 161.517 8.4965 174.01 20.9896C186.503 33.4826 192.75 48.6527 192.75 66.5C192.75 84.3472 186.503 99.5173 174.01 112.01C161.517 124.503 146.347 130.75 128.5 130.75C110.653 130.75 95.4826 124.503 82.9896 112.01ZM158.751 96.751C167.139 88.3628 171.333 78.2791 171.333 66.5C171.333 54.7208 167.139 44.6371 158.751 36.2489C150.363 27.8607 140.279 23.6666 128.5 23.6666C116.721 23.6666 106.637 27.8607 98.249 36.2489C89.8608 44.6371 85.6667 54.7208 85.6667 66.5C85.6667 78.2791 89.8608 88.3628 98.249 96.751C106.637 105.139 116.721 109.333 128.5 109.333C140.279 109.333 150.363 105.139 158.751 96.751ZM113.38 81.6308C109.182 77.4332 107.083 72.3895 107.083 66.5C107.083 60.6104 109.182 55.5703 113.38 51.3798C117.577 47.1893 122.618 45.0904 128.5 45.0833C134.382 45.0762 139.426 47.175 143.631 51.3798C147.836 55.5846 149.931 60.6247 149.917 66.5C149.902 72.3753 147.807 77.4189 143.631 81.6308C139.455 85.8428 134.411 87.938 128.5 87.9166C122.589 87.8952 117.549 85.7999 113.38 81.6308Z" fill="#AD8B22"/>
</svg>
